<svg xmlns="http://www.w3.org/2000/svg" width="16" height="16" fill="currentColor" style=""><rect id="backgroundrect" width="100%" height="100%" x="0" y="0" fill="none" stroke="none"/>
  
<g class="currentLayer" style=""><title>Layer 1</title><path fill-rule="evenodd" d="M5 11.5a.5.5 0 01.5-.5h9a.5.5 0 010 1h-9a.5.5 0 01-.5-.5zm0-4a.5.5 0 01.5-.5h9a.5.5 0 010 1h-9a.5.5 0 01-.5-.5zm0-4a.5.5 0 01.5-.5h9a.5.5 0 010 1h-9a.5.5 0 01-.5-.5zm-3 1a1 1 0 100-2 1 1 0 000 2zm0 4a1 1 0 100-2 1 1 0 000 2zm0 4a1 1 0 100-2 1 1 0 000 2z" clip-rule="evenodd" id="svg_1" class="selected" fill="#ffffff" fill-opacity="1"/></g></svg>