<svg xmlns="http://www.w3.org/2000/svg" width="16" height="16" fill="currentColor" style=""><rect id="backgroundrect" width="100%" height="100%" x="0" y="0" fill="none" stroke="none"/>
  
  
<g class="currentLayer" style=""><title>Layer 1</title><path fill-rule="evenodd" d="M11.293 1.293a1 1 0 011.414 0l2 2a1 1 0 010 1.414l-9 9a1 1 0 01-.39.242l-3 1a1 1 0 01-1.266-1.265l1-3a1 1 0 01.242-.391l9-9zM12 2l2 2-9 9-3 1 1-3 9-9z" clip-rule="evenodd" id="svg_1" class="" fill="#053868" fill-opacity="1"/><path fill-rule="evenodd" d="M12.146 6.354l-2.5-2.5.708-.708 2.5 2.5-.707.708zM3 10v.5a.5.5 0 00.5.5H4v.5a.5.5 0 00.5.5H5v.5a.5.5 0 00.5.5H6v-1.5a.5.5 0 00-.5-.5H5v-.5a.5.5 0 00-.5-.5H3z" clip-rule="evenodd" id="svg_2" class="selected" fill="#053868" fill-opacity="1"/></g></svg>