<svg xmlns="http://www.w3.org/2000/svg" width="16" height="16" fill="currentColor"><rect id="backgroundrect" width="100%" height="100%" x="0" y="0" fill="none" stroke="none"/>
  
  
<g class="currentLayer" style=""><title>Layer 1</title><path d="M9 1H4a2 2 0 00-2 2v10a2 2 0 002 2h8a2 2 0 002-2V8h-1v5a1 1 0 01-1 1H4a1 1 0 01-1-1V3a1 1 0 011-1h5V1z" id="svg_1" class="" fill="#ffffff" fill-opacity="1"/><path fill-rule="evenodd" d="M15.854 2.146a.5.5 0 010 .708l-3 3a.5.5 0 01-.708 0l-1.5-1.5a.5.5 0 01.708-.708L12.5 4.793l2.646-2.647a.5.5 0 01.708 0z" clip-rule="evenodd" id="svg_2" class="selected" fill="#ffffff" fill-opacity="1"/></g></svg>