<?xml version="1.0" encoding="UTF-8"?>
<svg xmlns="http://www.w3.org/2000/svg" xmlns:xlink="http://www.w3.org/1999/xlink" width="16pt" height="16pt" viewBox="0 0 16 16" version="1.1">
<g id="surface1">
<path style=" stroke:none;fill-rule:nonzero;fill:rgb(100%,100%,100%);fill-opacity:1;" d="M 6 13.332031 C 5.722656 13.332031 5.5 13.109375 5.5 12.832031 L 5.5 0.5 C 5.5 0.222656 5.722656 0 6 0 C 6.277344 0 6.5 0.222656 6.5 0.5 L 6.5 12.832031 C 6.5 13.109375 6.277344 13.332031 6 13.332031 Z M 6 13.332031 "/>
<path style=" stroke:none;fill-rule:nonzero;fill:rgb(100%,100%,100%);fill-opacity:1;" d="M 11.5 2.667969 C 11.222656 2.667969 11 2.441406 11 2.167969 L 11 1 L 1 1 L 1 2.167969 C 1 2.441406 0.777344 2.667969 0.5 2.667969 C 0.222656 2.667969 0 2.441406 0 2.167969 L 0 0.5 C 0 0.222656 0.222656 0 0.5 0 L 11.5 0 C 11.777344 0 12 0.222656 12 0.5 L 12 2.167969 C 12 2.441406 11.777344 2.667969 11.5 2.667969 Z M 11.5 2.667969 "/>
<path style=" stroke:none;fill-rule:nonzero;fill:rgb(100%,100%,100%);fill-opacity:1;" d="M 7.5 13.332031 L 4.5 13.332031 C 4.222656 13.332031 4 13.109375 4 12.832031 C 4 12.558594 4.222656 12.332031 4.5 12.332031 L 7.5 12.332031 C 7.777344 12.332031 8 12.558594 8 12.832031 C 8 13.109375 7.777344 13.332031 7.5 13.332031 Z M 7.5 13.332031 "/>
<path style=" stroke:none;fill-rule:nonzero;fill:rgb(100%,100%,100%);fill-opacity:1;" d="M 9.832031 8.167969 C 9.558594 8.167969 9.332031 7.941406 9.332031 7.667969 L 9.332031 6.5 C 9.332031 6.222656 9.558594 6 9.832031 6 L 15.5 6 C 15.777344 6 16 6.222656 16 6.5 L 16 7.5 C 16 7.777344 15.777344 8 15.5 8 C 15.222656 8 15 7.777344 15 7.5 L 15 7 L 10.332031 7 L 10.332031 7.667969 C 10.332031 7.941406 10.109375 8.167969 9.832031 8.167969 Z M 9.832031 8.167969 "/>
<path style=" stroke:none;fill-rule:nonzero;fill:rgb(100%,100%,100%);fill-opacity:1;" d="M 12.667969 13.332031 C 12.390625 13.332031 12.167969 13.109375 12.167969 12.832031 L 12.167969 6.5 C 12.167969 6.222656 12.390625 6 12.667969 6 C 12.941406 6 13.167969 6.222656 13.167969 6.5 L 13.167969 12.832031 C 13.167969 13.109375 12.941406 13.332031 12.667969 13.332031 Z M 12.667969 13.332031 "/>
<path style=" stroke:none;fill-rule:nonzero;fill:rgb(100%,100%,100%);fill-opacity:1;" d="M 13.5 13.332031 L 11.832031 13.332031 C 11.558594 13.332031 11.332031 13.109375 11.332031 12.832031 C 11.332031 12.558594 11.558594 12.332031 11.832031 12.332031 L 13.5 12.332031 C 13.777344 12.332031 14 12.558594 14 12.832031 C 14 13.109375 13.777344 13.332031 13.5 13.332031 Z M 13.5 13.332031 "/>
</g>
</svg>
