<svg xmlns="http://www.w3.org/2000/svg" width="16" height="14.324502944946289" fill="currentColor"><rect id="backgroundrect" width="100%" height="100%" x="0" y="0" fill="none" stroke="none" class="" style=""/>
  
  
  
<g class="currentLayer" style=""><title>Layer 1</title><path fill-rule="evenodd" d="M0.5,7 a0.5,0.5 0 0 1 0.5,0.5 V11 a1,1 0 0 0 1,1 h12 a1,1 0 0 0 1,-1 V7.5 a0.5,0.5 0 0 1 1,0 V11 a2,2 0 0 1 -2,2 H2 a2,2 0 0 1 -2,-2 V7.5 A0.5,0.5 0 0 1 0.5,7 z" clip-rule="evenodd" id="svg_1" class="" fill-opacity="1" fill="#ffffff"/><path fill-rule="evenodd" d="M5,6.5 a0.5,0.5 0 0 1 0.7070000000000002,0 L8,8.793 L10.293,6.5 a0.5,0.5 0 1 1 0.7070000000000002,0.7070000000000002 l-2.646,2.6470000000000002 a0.5,0.5 0 0 1 -0.7080000000000002,0 L5,7.207000000000001 A0.5,0.5 0 0 1 5,6.5 z" clip-rule="evenodd" id="svg_2" class="selected" fill-opacity="1" fill="#ffffff"/><path fill-rule="evenodd" d="M8,0 a0.5,0.5 0 0 1 0.5,0.5 v8 a0.5,0.5 0 0 1 -1,0 v-8 A0.5,0.5 0 0 1 8,0 z" clip-rule="evenodd" id="svg_3" class="" fill-opacity="1" fill="#ffffff"/></g></svg>