<svg xmlns="http://www.w3.org/2000/svg" width="16" height="16" fill="currentColor"><rect id="backgroundrect" width="100%" height="100%" x="0" y="0" fill="none" stroke="none"/>
  
<g class="currentLayer" style=""><title>Layer 1</title><path fill-rule="evenodd" d="M2 3.5a.5.5 0 01.5-.5h11a.5.5 0 010 1h-11a.5.5 0 01-.5-.5zm.646 2.146a.5.5 0 01.708 0l2 2a.5.5 0 010 .708l-2 2a.5.5 0 01-.708-.708L4.293 8 2.646 6.354a.5.5 0 010-.708zM7 6.5a.5.5 0 01.5-.5h6a.5.5 0 010 1h-6a.5.5 0 01-.5-.5zm0 3a.5.5 0 01.5-.5h6a.5.5 0 010 1h-6a.5.5 0 01-.5-.5zm-5 3a.5.5 0 01.5-.5h11a.5.5 0 010 1h-11a.5.5 0 01-.5-.5z" clip-rule="evenodd" id="svg_1" class="selected" fill="#ffffff" fill-opacity="1"/></g></svg>